{
  "asset": {
    "version": "2.0",
    "generator": "THREE.GLTFExporter"
  },
  "scenes": [
    {
      "name": "AuxScene",
      "nodes": [
        2
      ]
    }
  ],
  "scene": 0,
  "nodes": [
    {
      "name": "object_0",
      "mesh": 0
    },
    {
      "name": "object_1",
      "mesh": 1
    },
    {
      "children": [
        0,
        1
      ]
    }
  ],
  "bufferViews": [
    {
      "buffer": 0,
      "byteOffset": 0,
      "byteLength": 53496,
      "target": 34962,
      "byteStride": 12
    },
    {
      "buffer": 0,
      "byteOffset": 53496,
      "byteLength": 53496,
      "target": 34962,
      "byteStride": 12
    },
    {
      "buffer": 0,
      "byteOffset": 106992,
      "byteLength": 35664,
      "target": 34962,
      "byteStride": 8
    },
    {
      "buffer": 0,
      "byteOffset": 142656,
      "byteLength": 703836,
      "target": 34962,
      "byteStride": 12
    },
    {
      "buffer": 0,
      "byteOffset": 846492,
      "byteLength": 703836,
      "target": 34962,
      "byteStride": 12
    },
    {
      "buffer": 0,
      "byteOffset": 1550328,
      "byteLength": 469224,
      "target": 34962,
      "byteStride": 8
    }
  ],
  "buffers": [
    {
      "byteLength": 2019552,
      "uri": "data:application/octet-stream;base64,"
    }
  ],
  "accessors": [
    {
      "bufferView": 0,
      "componentType": 5126,
      "count": 4458,
      "max": [
        4.097004413604736,
        4.756962299346924,
        -0.08632136136293411
      ],
      "min": [
        -3.9860899448394775,
        1.7224400043487549,
        -4.176199913024902
      ],
      "type": "VEC3"
    },
    {
      "bufferView": 1,
      "componentType": 5126,
      "count": 4458,
      "max": [
        0.9766740202903748,
        0.9998260140419006,
        0.999226987361908
      ],
      "min": [
        -0.9918869733810425,
        -0.9994549751281738,
        -0.9995319843292236
      ],
      "type": "VEC3"
    },
    {
      "bufferView": 2,
      "componentType": 5126,
      "count": 4458,
      "max": [
        0.9936410188674927,
        0.8806970119476318
      ],
      "min": [
        0.017371999099850655,
        0.010967999696731567
      ],
      "type": "VEC2"
    },
    {
      "bufferView": 3,
      "componentType": 5126,
      "count": 58653,
      "max": [
        2.6391122341156006,
        7.3472113609313965,
        3.918661594390869
      ],
      "min": [
        -1.3855600357055664,
        -0.21279099583625793,
        -2.829440116882324
      ],
      "type": "VEC3"
    },
    {
      "bufferView": 4,
      "componentType": 5126,
      "count": 58653,
      "max": [
        0.9999120235443115,
        0.9999690055847168,
        0.9999139904975891
      ],
      "min": [
        -0.9999790191650391,
        -0.9997689723968506,
        -0.9998469948768616
      ],
      "type": "VEC3"
    },
    {
      "bufferView": 5,
      "componentType": 5126,
      "count": 58653,
      "max": [
        0.9912689924240112,
        0.9942569732666016
      ],
      "min": [
        0.0029509998857975006,
        0.004308999981731176
      ],
      "type": "VEC2"
    }
  ],
  "materials": [
    {
      "pbrMetallicRoughness": {
        "metallicFactor": 0.5,
        "roughnessFactor": 0.5
      },
      "name": "object_0"
    },
    {
      "pbrMetallicRoughness": {
        "metallicFactor": 0.5,
        "roughnessFactor": 0.5
      },
      "name": "object_1"
    }
  ],
  "meshes": [
    {
      "primitives": [
        {
          "mode": 4,
          "attributes": {
            "POSITION": 0,
            "NORMAL": 1,
            "TEXCOORD_0": 2
          },
          "material": 0
        }
      ]
    },
    {
      "primitives": [
        {
          "mode": 4,
          "attributes": {
            "POSITION": 3,
            "NORMAL": 4,
            "TEXCOORD_0": 5
          },
          "material": 1
        }
      ]
    }
  ]
}